<mxfile host="app.diagrams.net" modified="2022-03-12T15:57:45.618Z" agent="5.0 (Windows NT 10.0; Win64; x64) AppleWebKit/537.36 (KHTML, like Gecko) Chrome/99.0.4844.51 Safari/537.36" etag="DGnLGPgNBkPi8icY53o-" version="17.1.0" type="github">
  <diagram id="_-ImKOs5q8mTwOZgDUrV" name="Page-1">
    <mxGraphModel dx="782" dy="460" grid="1" gridSize="10" guides="1" tooltips="1" connect="1" arrows="1" fold="1" page="1" pageScale="1" pageWidth="850" pageHeight="1100" math="0" shadow="0">
      <root>
        <mxCell id="0" />
        <mxCell id="1" parent="0" />
        <mxCell id="jtlFs_rNh5AIGySq63-q-1" value="" style="sketch=0;outlineConnect=0;fontColor=#232F3E;gradientColor=none;fillColor=#232F3D;strokeColor=none;dashed=0;verticalLabelPosition=bottom;verticalAlign=top;align=center;html=1;fontSize=12;fontStyle=0;aspect=fixed;pointerEvents=1;shape=mxgraph.aws4.users;" vertex="1" parent="1">
          <mxGeometry x="60" y="30" width="50" height="50" as="geometry" />
        </mxCell>
        <mxCell id="jtlFs_rNh5AIGySq63-q-2" value="" style="sketch=0;points=[[0,0,0],[0.25,0,0],[0.5,0,0],[0.75,0,0],[1,0,0],[0,1,0],[0.25,1,0],[0.5,1,0],[0.75,1,0],[1,1,0],[0,0.25,0],[0,0.5,0],[0,0.75,0],[1,0.25,0],[1,0.5,0],[1,0.75,0]];outlineConnect=0;fontColor=#232F3E;gradientColor=#945DF2;gradientDirection=north;fillColor=#5A30B5;strokeColor=#ffffff;dashed=0;verticalLabelPosition=bottom;verticalAlign=top;align=center;html=1;fontSize=12;fontStyle=0;aspect=fixed;shape=mxgraph.aws4.resourceIcon;resIcon=mxgraph.aws4.cloudfront;" vertex="1" parent="1">
          <mxGeometry x="250" y="16" width="78" height="78" as="geometry" />
        </mxCell>
        <mxCell id="jtlFs_rNh5AIGySq63-q-3" value="" style="edgeStyle=orthogonalEdgeStyle;html=1;endArrow=open;elbow=vertical;startArrow=none;endFill=0;strokeColor=#545B64;rounded=0;" edge="1" parent="1">
          <mxGeometry width="100" relative="1" as="geometry">
            <mxPoint x="120" y="50" as="sourcePoint" />
            <mxPoint x="250" y="50" as="targetPoint" />
          </mxGeometry>
        </mxCell>
        <mxCell id="jtlFs_rNh5AIGySq63-q-4" value="" style="points=[[0,0],[0.25,0],[0.5,0],[0.75,0],[1,0],[1,0.25],[1,0.5],[1,0.75],[1,1],[0.75,1],[0.5,1],[0.25,1],[0,1],[0,0.75],[0,0.5],[0,0.25]];outlineConnect=0;gradientColor=none;html=1;whiteSpace=wrap;fontSize=12;fontStyle=0;container=1;pointerEvents=0;collapsible=0;recursiveResize=0;shape=mxgraph.aws4.group;grIcon=mxgraph.aws4.group_aws_cloud_alt;strokeColor=#232F3E;fillColor=none;verticalAlign=top;align=left;spacingLeft=30;fontColor=#232F3E;dashed=0;" vertex="1" parent="1">
          <mxGeometry x="50" y="120" width="750" height="780" as="geometry" />
        </mxCell>
        <mxCell id="jtlFs_rNh5AIGySq63-q-8" value="Security Services" style="points=[[0,0],[0.25,0],[0.5,0],[0.75,0],[1,0],[1,0.25],[1,0.5],[1,0.75],[1,1],[0.75,1],[0.5,1],[0.25,1],[0,1],[0,0.75],[0,0.5],[0,0.25]];outlineConnect=0;gradientColor=none;html=1;whiteSpace=wrap;fontSize=12;fontStyle=0;container=1;pointerEvents=0;collapsible=0;recursiveResize=0;shape=mxgraph.aws4.group;grIcon=mxgraph.aws4.group_vpc;strokeColor=#248814;fillColor=none;verticalAlign=top;align=left;spacingLeft=30;fontColor=#AAB7B8;dashed=0;" vertex="1" parent="jtlFs_rNh5AIGySq63-q-4">
          <mxGeometry x="64" y="40" width="350" height="88" as="geometry" />
        </mxCell>
        <mxCell id="jtlFs_rNh5AIGySq63-q-10" value="" style="verticalLabelPosition=bottom;verticalAlign=top;html=1;shape=mxgraph.basic.rect;fillColor2=none;strokeWidth=1;size=20;indent=5;" vertex="1" parent="jtlFs_rNh5AIGySq63-q-8">
          <mxGeometry x="70" y="14" width="190" height="60" as="geometry" />
        </mxCell>
        <mxCell id="jtlFs_rNh5AIGySq63-q-9" value="" style="sketch=0;outlineConnect=0;fontColor=#232F3E;gradientColor=none;fillColor=#BF0816;strokeColor=none;dashed=0;verticalLabelPosition=bottom;verticalAlign=top;align=center;html=1;fontSize=12;fontStyle=0;aspect=fixed;pointerEvents=1;shape=mxgraph.aws4.shield_shield_advanced;" vertex="1" parent="jtlFs_rNh5AIGySq63-q-8">
          <mxGeometry x="144" y="20" width="34.1" height="38" as="geometry" />
        </mxCell>
        <mxCell id="jtlFs_rNh5AIGySq63-q-11" value="iDMz" style="text;html=1;strokeColor=none;fillColor=none;align=center;verticalAlign=middle;whiteSpace=wrap;rounded=0;" vertex="1" parent="jtlFs_rNh5AIGySq63-q-8">
          <mxGeometry x="178.1" y="29" width="60" height="30" as="geometry" />
        </mxCell>
        <mxCell id="jtlFs_rNh5AIGySq63-q-14" value="ESS" style="points=[[0,0],[0.25,0],[0.5,0],[0.75,0],[1,0],[1,0.25],[1,0.5],[1,0.75],[1,1],[0.75,1],[0.5,1],[0.25,1],[0,1],[0,0.75],[0,0.5],[0,0.25]];outlineConnect=0;gradientColor=none;html=1;whiteSpace=wrap;fontSize=12;fontStyle=0;container=1;pointerEvents=0;collapsible=0;recursiveResize=0;shape=mxgraph.aws4.group;grIcon=mxgraph.aws4.group_vpc;strokeColor=#248814;fillColor=none;verticalAlign=top;align=left;spacingLeft=30;fontColor=#AAB7B8;dashed=0;" vertex="1" parent="jtlFs_rNh5AIGySq63-q-4">
          <mxGeometry x="64" y="140" width="350" height="88" as="geometry" />
        </mxCell>
        <mxCell id="jtlFs_rNh5AIGySq63-q-24" value="" style="verticalLabelPosition=bottom;verticalAlign=top;html=1;shape=mxgraph.basic.rect;fillColor2=none;strokeWidth=1;size=20;indent=5;" vertex="1" parent="jtlFs_rNh5AIGySq63-q-14">
          <mxGeometry x="36" y="20" width="120" height="60" as="geometry" />
        </mxCell>
        <mxCell id="jtlFs_rNh5AIGySq63-q-26" value="" style="verticalLabelPosition=bottom;verticalAlign=top;html=1;shape=mxgraph.basic.rect;fillColor2=none;strokeWidth=1;size=20;indent=5;" vertex="1" parent="jtlFs_rNh5AIGySq63-q-14">
          <mxGeometry x="266" y="20" width="70" height="60" as="geometry" />
        </mxCell>
        <mxCell id="jtlFs_rNh5AIGySq63-q-25" value="" style="verticalLabelPosition=bottom;verticalAlign=top;html=1;shape=mxgraph.basic.rect;fillColor2=none;strokeWidth=1;size=13.33;indent=5;" vertex="1" parent="jtlFs_rNh5AIGySq63-q-14">
          <mxGeometry x="196" y="20" width="40" height="60" as="geometry" />
        </mxCell>
        <mxCell id="jtlFs_rNh5AIGySq63-q-23" value="apigee" style="text;html=1;strokeColor=none;fillColor=none;align=center;verticalAlign=middle;whiteSpace=wrap;rounded=0;" vertex="1" parent="jtlFs_rNh5AIGySq63-q-14">
          <mxGeometry x="56" y="29" width="60" height="30" as="geometry" />
        </mxCell>
        <mxCell id="jtlFs_rNh5AIGySq63-q-22" value="Ping" style="text;html=1;strokeColor=none;fillColor=none;align=center;verticalAlign=middle;whiteSpace=wrap;rounded=0;" vertex="1" parent="jtlFs_rNh5AIGySq63-q-14">
          <mxGeometry x="186" y="35" width="60" height="30" as="geometry" />
        </mxCell>
        <mxCell id="jtlFs_rNh5AIGySq63-q-21" value="Calendar Service" style="text;html=1;strokeColor=none;fillColor=none;align=center;verticalAlign=middle;whiteSpace=wrap;rounded=0;" vertex="1" parent="jtlFs_rNh5AIGySq63-q-14">
          <mxGeometry x="271" y="35" width="60" height="30" as="geometry" />
        </mxCell>
        <mxCell id="jtlFs_rNh5AIGySq63-q-30" value="" style="endArrow=classic;startArrow=classic;html=1;rounded=0;exitX=0.961;exitY=0.533;exitDx=0;exitDy=0;exitPerimeter=0;" edge="1" parent="jtlFs_rNh5AIGySq63-q-14" source="jtlFs_rNh5AIGySq63-q-24">
          <mxGeometry width="50" height="50" relative="1" as="geometry">
            <mxPoint x="286" y="40" as="sourcePoint" />
            <mxPoint x="196" y="52" as="targetPoint" />
          </mxGeometry>
        </mxCell>
        <mxCell id="jtlFs_rNh5AIGySq63-q-32" value="Business app account" style="points=[[0,0],[0.25,0],[0.5,0],[0.75,0],[1,0],[1,0.25],[1,0.5],[1,0.75],[1,1],[0.75,1],[0.5,1],[0.25,1],[0,1],[0,0.75],[0,0.5],[0,0.25]];outlineConnect=0;gradientColor=none;html=1;whiteSpace=wrap;fontSize=12;fontStyle=0;container=1;pointerEvents=0;collapsible=0;recursiveResize=0;shape=mxgraph.aws4.group;grIcon=mxgraph.aws4.group_vpc;strokeColor=#248814;fillColor=none;verticalAlign=top;align=left;spacingLeft=30;fontColor=#AAB7B8;dashed=0;" vertex="1" parent="jtlFs_rNh5AIGySq63-q-4">
          <mxGeometry x="64" y="250" width="356" height="340" as="geometry" />
        </mxCell>
        <mxCell id="jtlFs_rNh5AIGySq63-q-40" value="" style="edgeStyle=orthogonalEdgeStyle;html=1;endArrow=openThin;elbow=vertical;startArrow=none;endFill=0;strokeColor=#545B64;rounded=0;" edge="1" parent="jtlFs_rNh5AIGySq63-q-32" source="jtlFs_rNh5AIGySq63-q-33" target="jtlFs_rNh5AIGySq63-q-36">
          <mxGeometry width="100" relative="1" as="geometry">
            <mxPoint x="256" y="100" as="sourcePoint" />
            <mxPoint x="356" y="100" as="targetPoint" />
          </mxGeometry>
        </mxCell>
        <mxCell id="jtlFs_rNh5AIGySq63-q-74" value="" style="edgeStyle=orthogonalEdgeStyle;rounded=0;orthogonalLoop=1;jettySize=auto;html=1;exitX=0;exitY=0.5;exitDx=0;exitDy=0;exitPerimeter=0;" edge="1" parent="jtlFs_rNh5AIGySq63-q-32" source="jtlFs_rNh5AIGySq63-q-60" target="jtlFs_rNh5AIGySq63-q-37">
          <mxGeometry relative="1" as="geometry" />
        </mxCell>
        <mxCell id="jtlFs_rNh5AIGySq63-q-35" value="ux" style="sketch=0;outlineConnect=0;fontColor=#232F3E;gradientColor=none;fillColor=#D45B07;strokeColor=none;dashed=0;verticalLabelPosition=bottom;verticalAlign=top;align=center;html=1;fontSize=12;fontStyle=0;aspect=fixed;pointerEvents=1;shape=mxgraph.aws4.container_2;" vertex="1" parent="jtlFs_rNh5AIGySq63-q-32">
          <mxGeometry x="22" y="140" width="48" height="31" as="geometry" />
        </mxCell>
        <mxCell id="jtlFs_rNh5AIGySq63-q-33" value="" style="sketch=0;outlineConnect=0;fontColor=#232F3E;gradientColor=none;fillColor=#4D27AA;strokeColor=none;dashed=0;verticalLabelPosition=bottom;verticalAlign=top;align=center;html=1;fontSize=12;fontStyle=0;aspect=fixed;pointerEvents=1;shape=mxgraph.aws4.application_load_balancer;" vertex="1" parent="jtlFs_rNh5AIGySq63-q-32">
          <mxGeometry x="151" y="30" width="40" height="40" as="geometry" />
        </mxCell>
        <mxCell id="jtlFs_rNh5AIGySq63-q-36" value="Services" style="sketch=0;outlineConnect=0;fontColor=#232F3E;gradientColor=none;fillColor=#D45B07;strokeColor=none;dashed=0;verticalLabelPosition=bottom;verticalAlign=top;align=center;html=1;fontSize=12;fontStyle=0;aspect=fixed;pointerEvents=1;shape=mxgraph.aws4.container_2;" vertex="1" parent="jtlFs_rNh5AIGySq63-q-32">
          <mxGeometry x="86" y="140" width="48" height="31" as="geometry" />
        </mxCell>
        <mxCell id="jtlFs_rNh5AIGySq63-q-37" value="Batch" style="sketch=0;outlineConnect=0;fontColor=#232F3E;gradientColor=none;fillColor=#D45B07;strokeColor=none;dashed=0;verticalLabelPosition=bottom;verticalAlign=top;align=center;html=1;fontSize=12;fontStyle=0;aspect=fixed;pointerEvents=1;shape=mxgraph.aws4.container_2;" vertex="1" parent="jtlFs_rNh5AIGySq63-q-32">
          <mxGeometry x="151" y="140" width="48" height="31" as="geometry" />
        </mxCell>
        <mxCell id="jtlFs_rNh5AIGySq63-q-39" value="Fargate Cluster" style="points=[[0,0],[0.25,0],[0.5,0],[0.75,0],[1,0],[1,0.25],[1,0.5],[1,0.75],[1,1],[0.75,1],[0.5,1],[0.25,1],[0,1],[0,0.75],[0,0.5],[0,0.25]];outlineConnect=0;gradientColor=none;html=1;whiteSpace=wrap;fontSize=12;fontStyle=0;container=1;pointerEvents=0;collapsible=0;recursiveResize=0;shape=mxgraph.aws4.group;grIcon=mxgraph.aws4.group_elastic_beanstalk;strokeColor=#D86613;fillColor=none;verticalAlign=top;align=left;spacingLeft=30;fontColor=#D86613;dashed=0;" vertex="1" parent="jtlFs_rNh5AIGySq63-q-32">
          <mxGeometry x="14" y="105" width="270" height="125" as="geometry" />
        </mxCell>
        <mxCell id="jtlFs_rNh5AIGySq63-q-38" value="" style="sketch=0;points=[[0,0,0],[0.25,0,0],[0.5,0,0],[0.75,0,0],[1,0,0],[0,1,0],[0.25,1,0],[0.5,1,0],[0.75,1,0],[1,1,0],[0,0.25,0],[0,0.5,0],[0,0.75,0],[1,0.25,0],[1,0.5,0],[1,0.75,0]];outlineConnect=0;fontColor=#232F3E;gradientColor=#F78E04;gradientDirection=north;fillColor=#D05C17;strokeColor=#ffffff;dashed=0;verticalLabelPosition=bottom;verticalAlign=top;align=center;html=1;fontSize=12;fontStyle=0;aspect=fixed;shape=mxgraph.aws4.resourceIcon;resIcon=mxgraph.aws4.fargate;" vertex="1" parent="jtlFs_rNh5AIGySq63-q-39">
          <mxGeometry width="20" height="20" as="geometry" />
        </mxCell>
        <mxCell id="jtlFs_rNh5AIGySq63-q-41" value="http" style="edgeStyle=orthogonalEdgeStyle;html=1;endArrow=openThin;elbow=vertical;startArrow=none;endFill=0;strokeColor=#545B64;rounded=0;entryX=0.5;entryY=0;entryDx=0;entryDy=0;" edge="1" parent="jtlFs_rNh5AIGySq63-q-39" source="jtlFs_rNh5AIGySq63-q-33">
          <mxGeometry width="100" relative="1" as="geometry">
            <mxPoint x="81" y="-0.0004545351242768447" as="sourcePoint" />
            <mxPoint x="32" y="35" as="targetPoint" />
          </mxGeometry>
        </mxCell>
        <mxCell id="jtlFs_rNh5AIGySq63-q-101" value="Text" style="edgeLabel;html=1;align=center;verticalAlign=middle;resizable=0;points=[];" vertex="1" connectable="0" parent="jtlFs_rNh5AIGySq63-q-41">
          <mxGeometry x="-0.3094" y="-2" relative="1" as="geometry">
            <mxPoint as="offset" />
          </mxGeometry>
        </mxCell>
        <mxCell id="jtlFs_rNh5AIGySq63-q-42" value="" style="sketch=0;outlineConnect=0;fontColor=#232F3E;gradientColor=none;fillColor=#D45B07;strokeColor=none;dashed=0;verticalLabelPosition=bottom;verticalAlign=top;align=center;html=1;fontSize=12;fontStyle=0;aspect=fixed;pointerEvents=1;shape=mxgraph.aws4.ecs_service;" vertex="1" parent="jtlFs_rNh5AIGySq63-q-39">
          <mxGeometry x="20" y="95" width="18.69" height="23" as="geometry" />
        </mxCell>
        <mxCell id="jtlFs_rNh5AIGySq63-q-44" value="" style="sketch=0;outlineConnect=0;fontColor=#232F3E;gradientColor=none;fillColor=#D45B07;strokeColor=none;dashed=0;verticalLabelPosition=bottom;verticalAlign=top;align=center;html=1;fontSize=12;fontStyle=0;aspect=fixed;pointerEvents=1;shape=mxgraph.aws4.ecs_service;" vertex="1" parent="jtlFs_rNh5AIGySq63-q-39">
          <mxGeometry x="82" y="95" width="18.69" height="23" as="geometry" />
        </mxCell>
        <mxCell id="jtlFs_rNh5AIGySq63-q-43" value="" style="sketch=0;outlineConnect=0;fontColor=#232F3E;gradientColor=none;fillColor=#D45B07;strokeColor=none;dashed=0;verticalLabelPosition=bottom;verticalAlign=top;align=center;html=1;fontSize=12;fontStyle=0;aspect=fixed;pointerEvents=1;shape=mxgraph.aws4.ecs_service;" vertex="1" parent="jtlFs_rNh5AIGySq63-q-39">
          <mxGeometry x="152" y="95" width="18.69" height="23" as="geometry" />
        </mxCell>
        <mxCell id="jtlFs_rNh5AIGySq63-q-45" value="" style="sketch=0;outlineConnect=0;fontColor=#232F3E;gradientColor=none;fillColor=#2E27AD;strokeColor=none;dashed=0;verticalLabelPosition=bottom;verticalAlign=top;align=center;html=1;fontSize=12;fontStyle=0;aspect=fixed;pointerEvents=1;shape=mxgraph.aws4.aurora_instance;" vertex="1" parent="jtlFs_rNh5AIGySq63-q-32">
          <mxGeometry x="22" y="250" width="50" height="50" as="geometry" />
        </mxCell>
        <mxCell id="jtlFs_rNh5AIGySq63-q-46" value="" style="edgeStyle=orthogonalEdgeStyle;html=1;endArrow=openThin;elbow=vertical;startArrow=none;endFill=0;strokeColor=#545B64;rounded=0;" edge="1" parent="jtlFs_rNh5AIGySq63-q-32" source="jtlFs_rNh5AIGySq63-q-39" target="jtlFs_rNh5AIGySq63-q-45">
          <mxGeometry width="100" relative="1" as="geometry">
            <mxPoint x="256" y="170" as="sourcePoint" />
            <mxPoint x="356" y="170" as="targetPoint" />
            <Array as="points">
              <mxPoint x="106" y="240" />
              <mxPoint x="47" y="240" />
            </Array>
          </mxGeometry>
        </mxCell>
        <mxCell id="jtlFs_rNh5AIGySq63-q-55" value="" style="sketch=0;points=[[0,0,0],[0.25,0,0],[0.5,0,0],[0.75,0,0],[1,0,0],[0,1,0],[0.25,1,0],[0.5,1,0],[0.75,1,0],[1,1,0],[0,0.25,0],[0,0.5,0],[0,0.75,0],[1,0.25,0],[1,0.5,0],[1,0.75,0]];outlineConnect=0;fontColor=#232F3E;gradientColor=#FF4F8B;gradientDirection=north;fillColor=#BC1356;strokeColor=#ffffff;dashed=0;verticalLabelPosition=bottom;verticalAlign=top;align=center;html=1;fontSize=12;fontStyle=0;aspect=fixed;shape=mxgraph.aws4.resourceIcon;resIcon=mxgraph.aws4.sqs;" vertex="1" parent="jtlFs_rNh5AIGySq63-q-32">
          <mxGeometry x="230" y="250" width="40" height="40" as="geometry" />
        </mxCell>
        <mxCell id="jtlFs_rNh5AIGySq63-q-56" value="" style="sketch=0;points=[[0,0,0],[0.25,0,0],[0.5,0,0],[0.75,0,0],[1,0,0],[0,1,0],[0.25,1,0],[0.5,1,0],[0.75,1,0],[1,1,0],[0,0.25,0],[0,0.5,0],[0,0.75,0],[1,0.25,0],[1,0.5,0],[1,0.75,0]];outlineConnect=0;fontColor=#232F3E;gradientColor=#FF4F8B;gradientDirection=north;fillColor=#BC1356;strokeColor=#ffffff;dashed=0;verticalLabelPosition=bottom;verticalAlign=top;align=center;html=1;fontSize=12;fontStyle=0;aspect=fixed;shape=mxgraph.aws4.resourceIcon;resIcon=mxgraph.aws4.sns;" vertex="1" parent="jtlFs_rNh5AIGySq63-q-32">
          <mxGeometry x="230" y="300" width="38" height="38" as="geometry" />
        </mxCell>
        <mxCell id="jtlFs_rNh5AIGySq63-q-60" value="" style="sketch=0;points=[[0,0,0],[0.25,0,0],[0.5,0,0],[0.75,0,0],[1,0,0],[0,1,0],[0.25,1,0],[0.5,1,0],[0.75,1,0],[1,1,0],[0,0.25,0],[0,0.5,0],[0,0.75,0],[1,0.25,0],[1,0.5,0],[1,0.75,0]];outlineConnect=0;fontColor=#232F3E;gradientColor=#FF4F8B;gradientDirection=north;fillColor=#BC1356;strokeColor=#ffffff;dashed=0;verticalLabelPosition=bottom;verticalAlign=top;align=center;html=1;fontSize=12;fontStyle=0;aspect=fixed;shape=mxgraph.aws4.resourceIcon;resIcon=mxgraph.aws4.step_functions;" vertex="1" parent="jtlFs_rNh5AIGySq63-q-32">
          <mxGeometry x="227" y="52.5" width="39" height="39" as="geometry" />
        </mxCell>
        <mxCell id="jtlFs_rNh5AIGySq63-q-61" value="" style="sketch=0;outlineConnect=0;fontColor=#232F3E;gradientColor=none;fillColor=#D45B07;strokeColor=none;dashed=0;verticalLabelPosition=bottom;verticalAlign=top;align=center;html=1;fontSize=12;fontStyle=0;aspect=fixed;pointerEvents=1;shape=mxgraph.aws4.lambda_function;" vertex="1" parent="jtlFs_rNh5AIGySq63-q-32">
          <mxGeometry x="242" y="6" width="24" height="24" as="geometry" />
        </mxCell>
        <mxCell id="jtlFs_rNh5AIGySq63-q-62" value="" style="sketch=0;outlineConnect=0;fontColor=#232F3E;gradientColor=none;fillColor=#D45B07;strokeColor=none;dashed=0;verticalLabelPosition=bottom;verticalAlign=top;align=center;html=1;fontSize=12;fontStyle=0;aspect=fixed;pointerEvents=1;shape=mxgraph.aws4.lambda_function;" vertex="1" parent="jtlFs_rNh5AIGySq63-q-32">
          <mxGeometry x="311" y="67.5" width="24" height="24" as="geometry" />
        </mxCell>
        <mxCell id="jtlFs_rNh5AIGySq63-q-72" value="" style="edgeStyle=orthogonalEdgeStyle;html=1;endArrow=open;elbow=vertical;startArrow=none;endFill=0;strokeColor=#545B64;rounded=0;exitX=0.5;exitY=0;exitDx=0;exitDy=0;exitPerimeter=0;" edge="1" parent="jtlFs_rNh5AIGySq63-q-32" source="jtlFs_rNh5AIGySq63-q-60" target="jtlFs_rNh5AIGySq63-q-61">
          <mxGeometry width="100" relative="1" as="geometry">
            <mxPoint x="256" y="90" as="sourcePoint" />
            <mxPoint x="356" y="90" as="targetPoint" />
          </mxGeometry>
        </mxCell>
        <mxCell id="jtlFs_rNh5AIGySq63-q-75" value="" style="edgeStyle=orthogonalEdgeStyle;html=1;endArrow=openThin;elbow=vertical;startArrow=none;endFill=0;strokeColor=#545B64;rounded=0;" edge="1" parent="jtlFs_rNh5AIGySq63-q-32" source="jtlFs_rNh5AIGySq63-q-97" target="jtlFs_rNh5AIGySq63-q-45">
          <mxGeometry width="100" relative="1" as="geometry">
            <mxPoint x="116" y="240" as="sourcePoint" />
            <mxPoint x="57" y="260" as="targetPoint" />
            <Array as="points">
              <mxPoint x="175" y="240" />
              <mxPoint x="176" y="250" />
            </Array>
          </mxGeometry>
        </mxCell>
        <mxCell id="jtlFs_rNh5AIGySq63-q-76" value="" style="edgeStyle=orthogonalEdgeStyle;html=1;endArrow=block;elbow=vertical;startArrow=none;endFill=1;strokeColor=#545B64;rounded=0;entryX=0;entryY=0.5;entryDx=0;entryDy=0;entryPerimeter=0;" edge="1" parent="jtlFs_rNh5AIGySq63-q-32" target="jtlFs_rNh5AIGySq63-q-56">
          <mxGeometry width="100" relative="1" as="geometry">
            <mxPoint x="186" y="230" as="sourcePoint" />
            <mxPoint x="286" y="230" as="targetPoint" />
          </mxGeometry>
        </mxCell>
        <mxCell id="jtlFs_rNh5AIGySq63-q-80" value="" style="sketch=0;points=[[0,0,0],[0.25,0,0],[0.5,0,0],[0.75,0,0],[1,0,0],[0,1,0],[0.25,1,0],[0.5,1,0],[0.75,1,0],[1,1,0],[0,0.25,0],[0,0.5,0],[0,0.75,0],[1,0.25,0],[1,0.5,0],[1,0.75,0]];outlineConnect=0;fontColor=#232F3E;gradientColor=#60A337;gradientDirection=north;fillColor=#277116;strokeColor=#ffffff;dashed=0;verticalLabelPosition=bottom;verticalAlign=top;align=center;html=1;fontSize=12;fontStyle=0;aspect=fixed;shape=mxgraph.aws4.resourceIcon;resIcon=mxgraph.aws4.s3;" vertex="1" parent="jtlFs_rNh5AIGySq63-q-32">
          <mxGeometry x="311" y="105" width="25" height="25" as="geometry" />
        </mxCell>
        <mxCell id="jtlFs_rNh5AIGySq63-q-97" value="Availability Zone" style="fillColor=none;strokeColor=#147EBA;dashed=1;verticalAlign=top;fontStyle=0;fontColor=#147EBA;" vertex="1" parent="jtlFs_rNh5AIGySq63-q-32">
          <mxGeometry x="10.690000000000001" y="240" width="104" height="90" as="geometry" />
        </mxCell>
        <mxCell id="jtlFs_rNh5AIGySq63-q-98" value="" style="edgeStyle=orthogonalEdgeStyle;html=1;endArrow=none;elbow=vertical;startArrow=none;endFill=0;strokeColor=#545B64;rounded=0;" edge="1" parent="jtlFs_rNh5AIGySq63-q-32" source="jtlFs_rNh5AIGySq63-q-43" target="jtlFs_rNh5AIGySq63-q-97">
          <mxGeometry width="100" relative="1" as="geometry">
            <mxPoint x="289.4000000000001" y="593" as="sourcePoint" />
            <mxPoint x="185.999431236492" y="645" as="targetPoint" />
            <Array as="points" />
          </mxGeometry>
        </mxCell>
        <mxCell id="jtlFs_rNh5AIGySq63-q-100" value="Private subnet" style="points=[[0,0],[0.25,0],[0.5,0],[0.75,0],[1,0],[1,0.25],[1,0.5],[1,0.75],[1,1],[0.75,1],[0.5,1],[0.25,1],[0,1],[0,0.75],[0,0.5],[0,0.25]];outlineConnect=0;gradientColor=none;html=1;whiteSpace=wrap;fontSize=12;fontStyle=0;container=1;pointerEvents=0;collapsible=0;recursiveResize=0;shape=mxgraph.aws4.group;grIcon=mxgraph.aws4.group_security_group;grStroke=0;strokeColor=#147EBA;fillColor=#E6F2F8;verticalAlign=top;align=left;spacingLeft=30;fontColor=#147EBA;dashed=0;opacity=30;" vertex="1" parent="jtlFs_rNh5AIGySq63-q-32">
          <mxGeometry x="21" y="14.5" width="219" height="55.5" as="geometry" />
        </mxCell>
        <mxCell id="jtlFs_rNh5AIGySq63-q-103" value="Private subnet" style="points=[[0,0],[0.25,0],[0.5,0],[0.75,0],[1,0],[1,0.25],[1,0.5],[1,0.75],[1,1],[0.75,1],[0.5,1],[0.25,1],[0,1],[0,0.75],[0,0.5],[0,0.25]];outlineConnect=0;gradientColor=none;html=1;whiteSpace=wrap;fontSize=12;fontStyle=0;container=1;pointerEvents=0;collapsible=0;recursiveResize=0;shape=mxgraph.aws4.group;grIcon=mxgraph.aws4.group_security_group;grStroke=0;strokeColor=#147EBA;fillColor=#E6F2F8;verticalAlign=top;align=left;spacingLeft=30;fontColor=#147EBA;dashed=0;opacity=30;" vertex="1" parent="jtlFs_rNh5AIGySq63-q-32">
          <mxGeometry y="240" width="219" height="55.5" as="geometry" />
        </mxCell>
        <mxCell id="jtlFs_rNh5AIGySq63-q-34" value="" style="edgeStyle=orthogonalEdgeStyle;html=1;endArrow=block;elbow=vertical;startArrow=none;endFill=1;strokeColor=#545B64;rounded=0;exitX=0.25;exitY=1;exitDx=0;exitDy=0;" edge="1" parent="jtlFs_rNh5AIGySq63-q-4" source="jtlFs_rNh5AIGySq63-q-14" target="jtlFs_rNh5AIGySq63-q-33">
          <mxGeometry width="100" relative="1" as="geometry">
            <mxPoint x="320" y="350" as="sourcePoint" />
            <mxPoint x="420" y="350" as="targetPoint" />
          </mxGeometry>
        </mxCell>
        <mxCell id="jtlFs_rNh5AIGySq63-q-49" value="" style="sketch=0;points=[[0,0,0],[0.25,0,0],[0.5,0,0],[0.75,0,0],[1,0,0],[0,1,0],[0.25,1,0],[0.5,1,0],[0.75,1,0],[1,1,0],[0,0.25,0],[0,0.5,0],[0,0.75,0],[1,0.25,0],[1,0.5,0],[1,0.75,0]];points=[[0,0,0],[0.25,0,0],[0.5,0,0],[0.75,0,0],[1,0,0],[0,1,0],[0.25,1,0],[0.5,1,0],[0.75,1,0],[1,1,0],[0,0.25,0],[0,0.5,0],[0,0.75,0],[1,0.25,0],[1,0.5,0],[1,0.75,0]];outlineConnect=0;fontColor=#232F3E;gradientColor=#F34482;gradientDirection=north;fillColor=#BC1356;strokeColor=#ffffff;dashed=0;verticalLabelPosition=bottom;verticalAlign=top;align=center;html=1;fontSize=12;fontStyle=0;aspect=fixed;shape=mxgraph.aws4.resourceIcon;resIcon=mxgraph.aws4.cloudwatch_2;" vertex="1" parent="jtlFs_rNh5AIGySq63-q-4">
          <mxGeometry x="630" y="570" width="78" height="78" as="geometry" />
        </mxCell>
        <mxCell id="jtlFs_rNh5AIGySq63-q-51" value="" style="sketch=0;points=[[0,0,0],[0.25,0,0],[0.5,0,0],[0.75,0,0],[1,0,0],[0,1,0],[0.25,1,0],[0.5,1,0],[0.75,1,0],[1,1,0],[0,0.25,0],[0,0.5,0],[0,0.75,0],[1,0.25,0],[1,0.5,0],[1,0.75,0]];points=[[0,0,0],[0.25,0,0],[0.5,0,0],[0.75,0,0],[1,0,0],[0,1,0],[0.25,1,0],[0.5,1,0],[0.75,1,0],[1,1,0],[0,0.25,0],[0,0.5,0],[0,0.75,0],[1,0.25,0],[1,0.5,0],[1,0.75,0]];outlineConnect=0;fontColor=#232F3E;gradientColor=#F34482;gradientDirection=north;fillColor=#BC1356;strokeColor=#ffffff;dashed=0;verticalLabelPosition=bottom;verticalAlign=top;align=center;html=1;fontSize=12;fontStyle=0;aspect=fixed;shape=mxgraph.aws4.resourceIcon;resIcon=mxgraph.aws4.cloudtrail;" vertex="1" parent="jtlFs_rNh5AIGySq63-q-4">
          <mxGeometry x="630" y="480" width="78" height="78" as="geometry" />
        </mxCell>
        <mxCell id="jtlFs_rNh5AIGySq63-q-52" value="" style="sketch=0;points=[[0,0,0],[0.25,0,0],[0.5,0,0],[0.75,0,0],[1,0,0],[0,1,0],[0.25,1,0],[0.5,1,0],[0.75,1,0],[1,1,0],[0,0.25,0],[0,0.5,0],[0,0.75,0],[1,0.25,0],[1,0.5,0],[1,0.75,0]];outlineConnect=0;fontColor=#232F3E;gradientColor=#F54749;gradientDirection=north;fillColor=#C7131F;strokeColor=#ffffff;dashed=0;verticalLabelPosition=bottom;verticalAlign=top;align=center;html=1;fontSize=12;fontStyle=0;aspect=fixed;shape=mxgraph.aws4.resourceIcon;resIcon=mxgraph.aws4.identity_and_access_management;" vertex="1" parent="jtlFs_rNh5AIGySq63-q-4">
          <mxGeometry x="630" y="190" width="78" height="78" as="geometry" />
        </mxCell>
        <mxCell id="jtlFs_rNh5AIGySq63-q-53" value="" style="sketch=0;points=[[0,0,0],[0.25,0,0],[0.5,0,0],[0.75,0,0],[1,0,0],[0,1,0],[0.25,1,0],[0.5,1,0],[0.75,1,0],[1,1,0],[0,0.25,0],[0,0.5,0],[0,0.75,0],[1,0.25,0],[1,0.5,0],[1,0.75,0]];outlineConnect=0;fontColor=#232F3E;gradientColor=#F54749;gradientDirection=north;fillColor=#C7131F;strokeColor=#ffffff;dashed=0;verticalLabelPosition=bottom;verticalAlign=top;align=center;html=1;fontSize=12;fontStyle=0;aspect=fixed;shape=mxgraph.aws4.resourceIcon;resIcon=mxgraph.aws4.secrets_manager;" vertex="1" parent="jtlFs_rNh5AIGySq63-q-4">
          <mxGeometry x="630" y="380" width="78" height="78" as="geometry" />
        </mxCell>
        <mxCell id="jtlFs_rNh5AIGySq63-q-54" value="" style="sketch=0;points=[[0,0,0],[0.25,0,0],[0.5,0,0],[0.75,0,0],[1,0,0],[0,1,0],[0.25,1,0],[0.5,1,0],[0.75,1,0],[1,1,0],[0,0.25,0],[0,0.5,0],[0,0.75,0],[1,0.25,0],[1,0.5,0],[1,0.75,0]];outlineConnect=0;fontColor=#232F3E;gradientColor=#F54749;gradientDirection=north;fillColor=#C7131F;strokeColor=#ffffff;dashed=0;verticalLabelPosition=bottom;verticalAlign=top;align=center;html=1;fontSize=12;fontStyle=0;aspect=fixed;shape=mxgraph.aws4.resourceIcon;resIcon=mxgraph.aws4.key_management_service;" vertex="1" parent="jtlFs_rNh5AIGySq63-q-4">
          <mxGeometry x="630" y="280" width="78" height="78" as="geometry" />
        </mxCell>
        <mxCell id="jtlFs_rNh5AIGySq63-q-68" value="" style="edgeStyle=orthogonalEdgeStyle;rounded=0;orthogonalLoop=1;jettySize=auto;html=1;" edge="1" parent="jtlFs_rNh5AIGySq63-q-4" source="jtlFs_rNh5AIGySq63-q-63" target="jtlFs_rNh5AIGySq63-q-62">
          <mxGeometry relative="1" as="geometry" />
        </mxCell>
        <mxCell id="jtlFs_rNh5AIGySq63-q-63" value="" style="sketch=0;outlineConnect=0;fontColor=#232F3E;gradientColor=none;fillColor=#B0084D;strokeColor=none;dashed=0;verticalLabelPosition=bottom;verticalAlign=top;align=center;html=1;fontSize=12;fontStyle=0;aspect=fixed;pointerEvents=1;shape=mxgraph.aws4.event_time_based;" vertex="1" parent="jtlFs_rNh5AIGySq63-q-4">
          <mxGeometry x="440" y="310" width="42" height="42" as="geometry" />
        </mxCell>
        <mxCell id="jtlFs_rNh5AIGySq63-q-67" value="" style="edgeStyle=orthogonalEdgeStyle;html=1;endArrow=openThin;elbow=vertical;startArrow=none;endFill=0;strokeColor=#545B64;rounded=0;entryX=1;entryY=0.5;entryDx=0;entryDy=0;" edge="1" parent="jtlFs_rNh5AIGySq63-q-4" source="jtlFs_rNh5AIGySq63-q-61" target="jtlFs_rNh5AIGySq63-q-21">
          <mxGeometry width="100" relative="1" as="geometry">
            <mxPoint x="520" y="300" as="sourcePoint" />
            <mxPoint x="620" y="300" as="targetPoint" />
          </mxGeometry>
        </mxCell>
        <mxCell id="jtlFs_rNh5AIGySq63-q-70" value="" style="edgeStyle=orthogonalEdgeStyle;html=1;endArrow=none;elbow=vertical;startArrow=openThin;startFill=0;strokeColor=#545B64;rounded=0;exitX=1;exitY=0.5;exitDx=0;exitDy=0;exitPerimeter=0;" edge="1" parent="jtlFs_rNh5AIGySq63-q-4" source="jtlFs_rNh5AIGySq63-q-60">
          <mxGeometry width="100" relative="1" as="geometry">
            <mxPoint x="450" y="389.5" as="sourcePoint" />
            <mxPoint x="380" y="330" as="targetPoint" />
          </mxGeometry>
        </mxCell>
        <mxCell id="jtlFs_rNh5AIGySq63-q-81" value="" style="edgeStyle=orthogonalEdgeStyle;html=1;endArrow=block;elbow=vertical;startArrow=none;endFill=1;strokeColor=#545B64;rounded=0;entryX=0;entryY=0;entryDx=0;entryDy=0;entryPerimeter=0;" edge="1" parent="jtlFs_rNh5AIGySq63-q-4" target="jtlFs_rNh5AIGySq63-q-79">
          <mxGeometry width="100" relative="1" as="geometry">
            <mxPoint x="240" y="380" as="sourcePoint" />
            <mxPoint x="420" y="540" as="targetPoint" />
            <Array as="points">
              <mxPoint x="400" y="380" />
              <mxPoint x="400" y="571" />
              <mxPoint x="375" y="571" />
            </Array>
          </mxGeometry>
        </mxCell>
        <mxCell id="jtlFs_rNh5AIGySq63-q-94" value="Availability Zone" style="fillColor=none;strokeColor=#147EBA;dashed=1;verticalAlign=top;fontStyle=0;fontColor=#147EBA;" vertex="1" parent="jtlFs_rNh5AIGySq63-q-4">
          <mxGeometry x="60" y="330" width="300" height="170" as="geometry" />
        </mxCell>
        <mxCell id="jtlFs_rNh5AIGySq63-q-102" value="Private subnet" style="points=[[0,0],[0.25,0],[0.5,0],[0.75,0],[1,0],[1,0.25],[1,0.5],[1,0.75],[1,1],[0.75,1],[0.5,1],[0.25,1],[0,1],[0,0.75],[0,0.5],[0,0.25]];outlineConnect=0;gradientColor=none;html=1;whiteSpace=wrap;fontSize=12;fontStyle=0;container=1;pointerEvents=0;collapsible=0;recursiveResize=0;shape=mxgraph.aws4.group;grIcon=mxgraph.aws4.group_security_group;grStroke=0;strokeColor=#147EBA;fillColor=#E6F2F8;verticalAlign=top;align=left;spacingLeft=30;fontColor=#147EBA;dashed=0;opacity=30;" vertex="1" parent="jtlFs_rNh5AIGySq63-q-4">
          <mxGeometry x="64" y="340" width="316" height="140" as="geometry" />
        </mxCell>
        <mxCell id="jtlFs_rNh5AIGySq63-q-13" value="" style="edgeStyle=orthogonalEdgeStyle;html=1;endArrow=block;elbow=vertical;startArrow=none;endFill=1;strokeColor=#545B64;rounded=0;entryX=0.5;entryY=0;entryDx=0;entryDy=0;exitX=0.5;exitY=1;exitDx=0;exitDy=0;exitPerimeter=0;" edge="1" parent="1" source="jtlFs_rNh5AIGySq63-q-2" target="jtlFs_rNh5AIGySq63-q-8">
          <mxGeometry width="100" relative="1" as="geometry">
            <mxPoint x="280" y="90" as="sourcePoint" />
            <mxPoint x="470" y="180" as="targetPoint" />
          </mxGeometry>
        </mxCell>
        <mxCell id="jtlFs_rNh5AIGySq63-q-85" value="" style="edgeStyle=orthogonalEdgeStyle;rounded=0;orthogonalLoop=1;jettySize=auto;html=1;" edge="1" parent="1" source="jtlFs_rNh5AIGySq63-q-64" target="jtlFs_rNh5AIGySq63-q-65">
          <mxGeometry relative="1" as="geometry" />
        </mxCell>
        <mxCell id="jtlFs_rNh5AIGySq63-q-64" value="" style="sketch=0;points=[[0,0,0],[0.25,0,0],[0.5,0,0],[0.75,0,0],[1,0,0],[0,1,0],[0.25,1,0],[0.5,1,0],[0.75,1,0],[1,1,0],[0,0.25,0],[0,0.5,0],[0,0.75,0],[1,0.25,0],[1,0.5,0],[1,0.75,0]];outlineConnect=0;fontColor=#232F3E;gradientColor=#945DF2;gradientDirection=north;fillColor=#5A30B5;strokeColor=#ffffff;dashed=0;verticalLabelPosition=bottom;verticalAlign=top;align=center;html=1;fontSize=12;fontStyle=0;aspect=fixed;shape=mxgraph.aws4.resourceIcon;resIcon=mxgraph.aws4.direct_connect;" vertex="1" parent="1">
          <mxGeometry x="70" y="940" width="30" height="30" as="geometry" />
        </mxCell>
        <mxCell id="jtlFs_rNh5AIGySq63-q-65" value="RAM (On Prem)" style="rounded=0;whiteSpace=wrap;html=1;" vertex="1" parent="1">
          <mxGeometry x="154" y="990" width="120" height="60" as="geometry" />
        </mxCell>
        <mxCell id="jtlFs_rNh5AIGySq63-q-69" value="" style="edgeStyle=orthogonalEdgeStyle;html=1;endArrow=open;elbow=vertical;startArrow=none;endFill=0;strokeColor=#545B64;rounded=0;" edge="1" parent="1">
          <mxGeometry width="100" relative="1" as="geometry">
            <mxPoint x="370" y="460" as="sourcePoint" />
            <mxPoint x="470" y="460" as="targetPoint" />
          </mxGeometry>
        </mxCell>
        <mxCell id="jtlFs_rNh5AIGySq63-q-73" value="" style="edgeStyle=orthogonalEdgeStyle;html=1;endArrow=none;elbow=vertical;startArrow=openThin;startFill=0;strokeColor=#545B64;rounded=0;" edge="1" parent="1">
          <mxGeometry width="100" relative="1" as="geometry">
            <mxPoint x="370" y="460" as="sourcePoint" />
            <mxPoint x="470" y="460" as="targetPoint" />
          </mxGeometry>
        </mxCell>
        <mxCell id="jtlFs_rNh5AIGySq63-q-82" value="" style="edgeStyle=orthogonalEdgeStyle;html=1;endArrow=none;elbow=vertical;startArrow=block;startFill=1;strokeColor=#545B64;rounded=0;" edge="1" parent="1">
          <mxGeometry width="100" relative="1" as="geometry">
            <mxPoint x="370" y="360" as="sourcePoint" />
            <mxPoint x="470" y="360" as="targetPoint" />
          </mxGeometry>
        </mxCell>
        <mxCell id="jtlFs_rNh5AIGySq63-q-31" value="" style="endArrow=classic;html=1;rounded=0;" edge="1" parent="1" source="jtlFs_rNh5AIGySq63-q-4" target="jtlFs_rNh5AIGySq63-q-4">
          <mxGeometry width="50" height="50" relative="1" as="geometry">
            <mxPoint x="330" y="300" as="sourcePoint" />
            <mxPoint x="380" y="250" as="targetPoint" />
            <Array as="points">
              <mxPoint x="70" y="320" />
            </Array>
          </mxGeometry>
        </mxCell>
        <mxCell id="jtlFs_rNh5AIGySq63-q-83" value="" style="edgeStyle=orthogonalEdgeStyle;html=1;endArrow=none;elbow=vertical;startArrow=openThin;startFill=0;strokeColor=#545B64;rounded=0;" edge="1" parent="1">
          <mxGeometry width="100" relative="1" as="geometry">
            <mxPoint x="370" y="360" as="sourcePoint" />
            <mxPoint x="470" y="360" as="targetPoint" />
          </mxGeometry>
        </mxCell>
        <mxCell id="jtlFs_rNh5AIGySq63-q-84" value="" style="edgeStyle=orthogonalEdgeStyle;html=1;endArrow=none;elbow=vertical;startArrow=openThin;startFill=0;strokeColor=#545B64;rounded=0;entryX=0.05;entryY=0.6;entryDx=0;entryDy=0;entryPerimeter=0;exitX=0;exitY=0.5;exitDx=0;exitDy=0;exitPerimeter=0;" edge="1" parent="1" source="jtlFs_rNh5AIGySq63-q-64" target="jtlFs_rNh5AIGySq63-q-24">
          <mxGeometry width="100" relative="1" as="geometry">
            <mxPoint x="40" y="510" as="sourcePoint" />
            <mxPoint x="130" y="310" as="targetPoint" />
            <Array as="points">
              <mxPoint x="50" y="310" />
              <mxPoint x="156" y="310" />
            </Array>
          </mxGeometry>
        </mxCell>
        <mxCell id="jtlFs_rNh5AIGySq63-q-86" value="Corporate data center" style="points=[[0,0],[0.25,0],[0.5,0],[0.75,0],[1,0],[1,0.25],[1,0.5],[1,0.75],[1,1],[0.75,1],[0.5,1],[0.25,1],[0,1],[0,0.75],[0,0.5],[0,0.25]];outlineConnect=0;gradientColor=none;html=1;whiteSpace=wrap;fontSize=12;fontStyle=0;container=1;pointerEvents=0;collapsible=0;recursiveResize=0;shape=mxgraph.aws4.group;grIcon=mxgraph.aws4.group_corporate_data_center;strokeColor=#5A6C86;fillColor=none;verticalAlign=top;align=left;spacingLeft=30;fontColor=#5A6C86;dashed=0;" vertex="1" parent="1">
          <mxGeometry x="80" y="980" width="670" height="130" as="geometry" />
        </mxCell>
        <mxCell id="jtlFs_rNh5AIGySq63-q-87" value="On prem service" style="whiteSpace=wrap;html=1;aspect=fixed;" vertex="1" parent="jtlFs_rNh5AIGySq63-q-86">
          <mxGeometry x="490" y="20" width="80" height="80" as="geometry" />
        </mxCell>
        <mxCell id="jtlFs_rNh5AIGySq63-q-92" value="ESB&amp;nbsp;" style="rounded=1;whiteSpace=wrap;html=1;" vertex="1" parent="jtlFs_rNh5AIGySq63-q-86">
          <mxGeometry x="261" y="10" width="120" height="60" as="geometry" />
        </mxCell>
        <mxCell id="jtlFs_rNh5AIGySq63-q-93" value="" style="endArrow=classic;startArrow=classic;html=1;rounded=0;entryX=0;entryY=0.5;entryDx=0;entryDy=0;exitX=1;exitY=0.5;exitDx=0;exitDy=0;" edge="1" parent="jtlFs_rNh5AIGySq63-q-86" source="jtlFs_rNh5AIGySq63-q-92" target="jtlFs_rNh5AIGySq63-q-87">
          <mxGeometry width="50" height="50" relative="1" as="geometry">
            <mxPoint x="320" y="-60" as="sourcePoint" />
            <mxPoint x="370" y="-110" as="targetPoint" />
          </mxGeometry>
        </mxCell>
        <mxCell id="jtlFs_rNh5AIGySq63-q-89" value="" style="endArrow=classic;startArrow=classic;html=1;rounded=0;entryX=0;entryY=0.5;entryDx=0;entryDy=0;" edge="1" parent="1" target="jtlFs_rNh5AIGySq63-q-92">
          <mxGeometry width="50" height="50" relative="1" as="geometry">
            <mxPoint x="100" y="960" as="sourcePoint" />
            <mxPoint x="450" y="970" as="targetPoint" />
          </mxGeometry>
        </mxCell>
        <mxCell id="jtlFs_rNh5AIGySq63-q-90" value="" style="endArrow=classic;startArrow=none;html=1;rounded=0;" edge="1" parent="1" source="jtlFs_rNh5AIGySq63-q-47">
          <mxGeometry width="50" height="50" relative="1" as="geometry">
            <mxPoint x="400" y="920" as="sourcePoint" />
            <mxPoint x="450" y="870" as="targetPoint" />
          </mxGeometry>
        </mxCell>
        <mxCell id="jtlFs_rNh5AIGySq63-q-47" value="" style="points=[[0,0],[0.25,0],[0.5,0],[0.75,0],[1,0],[1,0.25],[1,0.5],[1,0.75],[1,1],[0.75,1],[0.5,1],[0.25,1],[0,1],[0,0.75],[0,0.5],[0,0.25]];outlineConnect=0;gradientColor=none;html=1;whiteSpace=wrap;fontSize=12;fontStyle=0;container=1;pointerEvents=0;collapsible=0;recursiveResize=0;shape=mxgraph.aws4.group;grIcon=mxgraph.aws4.group_vpc;strokeColor=#248814;fillColor=none;verticalAlign=top;align=left;spacingLeft=30;fontColor=#AAB7B8;dashed=0;" vertex="1" parent="1">
          <mxGeometry x="114" y="740" width="436" height="240" as="geometry" />
        </mxCell>
        <mxCell id="jtlFs_rNh5AIGySq63-q-48" value="ESB Onprem Bridge" style="text;html=1;strokeColor=none;fillColor=none;align=center;verticalAlign=middle;whiteSpace=wrap;rounded=0;" vertex="1" parent="jtlFs_rNh5AIGySq63-q-47">
          <mxGeometry x="60" y="80" width="139" height="30" as="geometry" />
        </mxCell>
        <mxCell id="jtlFs_rNh5AIGySq63-q-57" value="" style="sketch=0;points=[[0,0,0],[0.25,0,0],[0.5,0,0],[0.75,0,0],[1,0,0],[0,1,0],[0.25,1,0],[0.5,1,0],[0.75,1,0],[1,1,0],[0,0.25,0],[0,0.5,0],[0,0.75,0],[1,0.25,0],[1,0.5,0],[1,0.75,0]];outlineConnect=0;fontColor=#232F3E;gradientColor=#FF4F8B;gradientDirection=north;fillColor=#BC1356;strokeColor=#ffffff;dashed=0;verticalLabelPosition=bottom;verticalAlign=top;align=center;html=1;fontSize=12;fontStyle=0;aspect=fixed;shape=mxgraph.aws4.resourceIcon;resIcon=mxgraph.aws4.sqs;" vertex="1" parent="jtlFs_rNh5AIGySq63-q-47">
          <mxGeometry x="199" y="45" width="40" height="40" as="geometry" />
        </mxCell>
        <mxCell id="jtlFs_rNh5AIGySq63-q-58" value="" style="sketch=0;points=[[0,0,0],[0.25,0,0],[0.5,0,0],[0.75,0,0],[1,0,0],[0,1,0],[0.25,1,0],[0.5,1,0],[0.75,1,0],[1,1,0],[0,0.25,0],[0,0.5,0],[0,0.75,0],[1,0.25,0],[1,0.5,0],[1,0.75,0]];outlineConnect=0;fontColor=#232F3E;gradientColor=#FF4F8B;gradientDirection=north;fillColor=#BC1356;strokeColor=#ffffff;dashed=0;verticalLabelPosition=bottom;verticalAlign=top;align=center;html=1;fontSize=12;fontStyle=0;aspect=fixed;shape=mxgraph.aws4.resourceIcon;resIcon=mxgraph.aws4.sns;" vertex="1" parent="jtlFs_rNh5AIGySq63-q-47">
          <mxGeometry x="256" y="46" width="38" height="38" as="geometry" />
        </mxCell>
        <mxCell id="jtlFs_rNh5AIGySq63-q-59" value="" style="sketch=0;points=[[0,0,0],[0.25,0,0],[0.5,0,0],[0.75,0,0],[1,0,0],[0,1,0],[0.25,1,0],[0.5,1,0],[0.75,1,0],[1,1,0],[0,0.25,0],[0,0.5,0],[0,0.75,0],[1,0.25,0],[1,0.5,0],[1,0.75,0]];outlineConnect=0;fontColor=#232F3E;gradientColor=#F54749;gradientDirection=north;fillColor=#C7131F;strokeColor=#ffffff;dashed=0;verticalLabelPosition=bottom;verticalAlign=top;align=center;html=1;fontSize=12;fontStyle=0;aspect=fixed;shape=mxgraph.aws4.resourceIcon;resIcon=mxgraph.aws4.key_management_service;" vertex="1" parent="jtlFs_rNh5AIGySq63-q-47">
          <mxGeometry y="90" width="40" height="40" as="geometry" />
        </mxCell>
        <mxCell id="jtlFs_rNh5AIGySq63-q-79" value="" style="sketch=0;points=[[0,0,0],[0.25,0,0],[0.5,0,0],[0.75,0,0],[1,0,0],[0,1,0],[0.25,1,0],[0.5,1,0],[0.75,1,0],[1,1,0],[0,0.25,0],[0,0.5,0],[0,0.75,0],[1,0.25,0],[1,0.5,0],[1,0.75,0]];outlineConnect=0;fontColor=#232F3E;gradientColor=#60A337;gradientDirection=north;fillColor=#277116;strokeColor=#ffffff;dashed=0;verticalLabelPosition=bottom;verticalAlign=top;align=center;html=1;fontSize=12;fontStyle=0;aspect=fixed;shape=mxgraph.aws4.resourceIcon;resIcon=mxgraph.aws4.s3;" vertex="1" parent="jtlFs_rNh5AIGySq63-q-47">
          <mxGeometry x="311" y="52.5" width="25" height="25" as="geometry" />
        </mxCell>
        <mxCell id="jtlFs_rNh5AIGySq63-q-78" style="edgeStyle=orthogonalEdgeStyle;rounded=0;orthogonalLoop=1;jettySize=auto;html=1;exitX=0.5;exitY=1;exitDx=0;exitDy=0;exitPerimeter=0;entryX=0.5;entryY=0;entryDx=0;entryDy=0;entryPerimeter=0;" edge="1" parent="1" source="jtlFs_rNh5AIGySq63-q-56" target="jtlFs_rNh5AIGySq63-q-57">
          <mxGeometry relative="1" as="geometry" />
        </mxCell>
        <mxCell id="jtlFs_rNh5AIGySq63-q-77" value="" style="edgeStyle=orthogonalEdgeStyle;html=1;endArrow=openThin;elbow=vertical;startArrow=none;endFill=0;strokeColor=#545B64;rounded=0;exitX=0.5;exitY=0;exitDx=0;exitDy=0;exitPerimeter=0;entryX=1;entryY=0.5;entryDx=0;entryDy=0;entryPerimeter=0;" edge="1" parent="1" source="jtlFs_rNh5AIGySq63-q-58" target="jtlFs_rNh5AIGySq63-q-55">
          <mxGeometry width="100" relative="1" as="geometry">
            <mxPoint x="370" y="760" as="sourcePoint" />
            <mxPoint x="470" y="760" as="targetPoint" />
          </mxGeometry>
        </mxCell>
        <mxCell id="jtlFs_rNh5AIGySq63-q-91" value="" style="endArrow=none;startArrow=classic;html=1;rounded=0;exitX=0.5;exitY=0;exitDx=0;exitDy=0;exitPerimeter=0;" edge="1" parent="1" source="jtlFs_rNh5AIGySq63-q-64" target="jtlFs_rNh5AIGySq63-q-47">
          <mxGeometry width="50" height="50" relative="1" as="geometry">
            <mxPoint x="400" y="920" as="sourcePoint" />
            <mxPoint x="450" y="870" as="targetPoint" />
            <Array as="points">
              <mxPoint x="240" y="880" />
            </Array>
          </mxGeometry>
        </mxCell>
        <mxCell id="jtlFs_rNh5AIGySq63-q-99" value="Region 2 as standby" style="text;html=1;strokeColor=none;fillColor=none;align=center;verticalAlign=middle;whiteSpace=wrap;rounded=0;" vertex="1" parent="1">
          <mxGeometry x="140" y="1190" width="60" height="30" as="geometry" />
        </mxCell>
      </root>
    </mxGraphModel>
  </diagram>
</mxfile>
